# This file uses centimeters as units for non-parametric coordinates.

mtllib lampUV.mtl
g default
v -1.431584 0.000003 1.510826
v 1.431584 0.000003 1.510826
v -1.079165 23.000000 1.079165
v 1.079165 23.000000 1.079165
v -1.079165 23.000000 -1.079165
v 1.079165 23.000000 -1.079165
v -1.431584 0.000003 -1.510826
v 1.431584 0.000003 -1.510826
v -1.431584 0.551899 1.510826
v 1.431584 0.551899 1.510826
v 1.431584 0.551889 -1.510826
v -1.431584 0.551889 -1.510826
v -0.500000 1.201690 -0.500000
v 0.500000 1.201690 -0.500000
v 0.500000 1.201688 0.500000
v -0.500000 1.201688 0.500000
v -0.500000 16.666784 -0.500000
v 0.500000 16.666784 -0.500000
v 0.500000 16.666784 0.500000
v -0.500000 16.666784 0.500000
v -1.431584 19.599529 -1.431707
v 1.431584 19.599529 -1.431707
v 1.431584 19.599529 1.431707
v -1.431584 19.599529 1.431707
v -1.431584 19.885437 -1.431707
v 1.431584 19.885437 -1.431707
v 1.431584 19.885437 1.431707
v -1.431584 19.885437 1.431707
vt 0.077748 0.647667
vt 0.116646 0.647667
vt 0.116646 0.654772
vt 0.077748 0.654772
vt 0.103633 0.663137
vt 0.090760 0.663137
vt 0.103633 0.862220
vt 0.090760 0.862220
vt 0.115627 0.899973
vt 0.078766 0.899973
vt 0.115627 0.903654
vt 0.078766 0.903654
vt 0.111089 0.943748
vt 0.083305 0.943748
vt 0.001992 0.647667
vt 0.040890 0.647667
vt 0.040890 0.654772
vt 0.001992 0.654772
vt 0.027878 0.663137
vt 0.015004 0.663137
vt 0.027878 0.862220
vt 0.015004 0.862220
vt 0.039871 0.899973
vt 0.003011 0.899973
vt 0.039871 0.903654
vt 0.003011 0.903654
vt 0.035333 0.943748
vt 0.007549 0.943748
vt 0.035333 0.971532
vt 0.007549 0.971532
vt 0.153504 0.647667
vt 0.116646 0.608769
vt 0.153504 0.608769
vt 0.065755 0.663137
vt 0.052882 0.663137
vt 0.065755 0.862220
vt 0.052882 0.862220
vt 0.077748 0.899973
vt 0.040890 0.899973
vt 0.077748 0.903654
vt 0.040890 0.903654
vt 0.073211 0.943748
vt 0.045427 0.943748
vt 0.153504 0.654772
vt 0.141511 0.663137
vt 0.128638 0.663137
vt 0.141512 0.862222
vt 0.128639 0.862221
vt 0.153505 0.899975
vt 0.116647 0.899975
vt 0.153505 0.903656
vt 0.116647 0.903656
vt 0.148968 0.943750
vt 0.121184 0.943750
vn 0.000000 0.440545 0.897731
vn 0.000000 0.440545 0.897731
vn 0.000000 0.158697 0.987327
vn 0.000000 0.158697 0.987327
vn 0.000000 1.000000 0.000000
vn 0.000000 1.000000 0.000000
vn 0.000000 1.000000 0.000000
vn 0.000000 1.000000 0.000000
vn 0.000000 0.158697 -0.987327
vn 0.000000 0.158697 -0.987327
vn 0.000000 0.440548 -0.897729
vn 0.000000 0.440548 -0.897729
vn 0.000000 -1.000000 0.000000
vn 0.000000 -1.000000 0.000000
vn 0.000000 -1.000000 0.000000
vn 0.000000 -1.000000 0.000000
vn 0.920467 0.390821 -0.000001
vn 0.920467 0.390820 -0.000001
vn 0.987791 0.155787 -0.000000
vn 0.987791 0.155788 -0.000000
vn -0.920467 0.390820 -0.000001
vn -0.920467 0.390821 -0.000001
vn -0.987791 0.155788 -0.000000
vn -0.987791 0.155787 -0.000000
vn 0.000000 0.000000 1.000000
vn 0.000000 0.000000 1.000000
vn 1.000000 0.000000 0.000000
vn 1.000000 0.000000 0.000000
vn 0.000000 0.000000 -1.000000
vn 0.000000 0.000000 -1.000000
vn -1.000000 0.000000 0.000000
vn -1.000000 0.000000 0.000000
vn 0.000000 -0.095837 -0.995397
vn 0.000000 -0.095837 -0.995397
vn 0.995398 -0.095830 0.000000
vn 0.995398 -0.095830 0.000000
vn 0.000000 -0.095837 0.995397
vn 0.000000 -0.095837 0.995397
vn -0.995398 -0.095830 0.000000
vn -0.995398 -0.095830 0.000000
vn 0.000000 -0.260430 -0.965493
vn 0.000000 -0.260430 -0.965493
vn 0.965502 -0.260396 0.000000
vn 0.965502 -0.260396 0.000000
vn 0.000000 -0.260430 0.965493
vn 0.000000 -0.260430 0.965493
vn -0.965502 -0.260396 0.000000
vn -0.965502 -0.260396 0.000000
vn 0.000000 0.101203 -0.994866
vn 0.000000 0.101203 -0.994866
vn 0.994869 0.101167 0.000000
vn 0.994869 0.101167 0.000000
vn 0.000000 0.101203 0.994866
vn 0.000000 0.101203 0.994866
vn -0.994869 0.101167 0.000000
vn -0.994869 0.101167 0.000000
vn 0.000000 0.112473 -0.993655
vn 0.000000 0.112473 -0.993655
vn 0.993659 0.112434 0.000000
vn 0.993659 0.112434 0.000000
vn 0.000000 0.112473 0.993655
vn 0.000000 0.112473 0.993655
vn -0.993659 0.112434 0.000000
vn -0.993659 0.112434 0.000000
s 1
g pCube2
usemtl texturedFacets4
f 9/17/1 10/4/2 15/34/3 16/35/4
s off
f 3/27/5 4/29/6 6/30/7 5/28/8
s 2
f 13/45/9 14/46/10 11/3/11 12/44/12
s off
f 7/31/13 8/2/14 2/32/15 1/33/16
s 3
f 10/4/17 11/3/18 14/5/19 15/6/20
s 4
f 12/18/21 9/17/22 16/19/23 13/20/24
s 1
f 1/16/25 2/1/26 10/4/2 9/17/1
s 3
f 2/1/27 8/2/28 11/3/18 10/4/17
s 2
f 12/44/12 11/3/11 8/2/29 7/31/30
s 4
f 7/15/31 1/16/32 9/17/22 12/18/21
s 2
f 17/47/33 18/48/34 14/46/10 13/45/9
s 3
f 15/6/20 14/5/19 18/7/35 19/8/36
s 1
f 16/35/4 15/34/3 19/36/37 20/37/38
s 4
f 13/20/24 16/19/23 20/21/39 17/22/40
s 2
f 21/49/41 22/50/42 18/48/34 17/47/33
s 3
f 19/8/36 18/7/35 22/9/43 23/10/44
s 1
f 20/37/38 19/36/37 23/38/45 24/39/46
s 4
f 17/22/40 20/21/39 24/23/47 21/24/48
s 2
f 25/51/49 26/52/50 22/50/42 21/49/41
s 3
f 23/10/44 22/9/43 26/11/51 27/12/52
s 1
f 24/39/46 23/38/45 27/40/53 28/41/54
s 4
f 21/24/48 24/23/47 28/25/55 25/26/56
s 2
f 5/53/57 6/54/58 26/52/50 25/51/49
s 3
f 27/12/52 26/11/51 6/13/59 4/14/60
s 1
f 28/41/54 27/40/53 4/42/61 3/43/62
s 4
f 25/26/56 28/25/55 3/27/63 5/28/64
