# This file uses centimeters as units for non-parametric coordinates.

mtllib throne3D.mtl
g default
v -6.095421 0.000000 5.345993
v 6.095421 0.000000 5.345993
v -6.095421 2.900384 5.345993
v 6.095421 2.900384 5.345993
v -6.095421 2.900384 -5.345993
v 6.095421 2.900384 -5.345993
v -6.095421 0.000000 -5.345993
v 6.095421 0.000000 -5.345993
v 0.000000 0.000000 5.345993
v 0.000000 0.000000 -5.345993
v 0.000000 2.900384 -5.345993
v 0.000000 2.900384 5.345993
v -3.047711 0.000000 5.345993
v -3.047711 0.000000 -5.345993
v -3.047711 2.900384 -5.345993
v -3.047711 2.900384 5.345993
v 3.047711 0.000000 5.345993
v 3.047711 0.000000 -5.345993
v 3.047711 2.900384 -5.345993
v 3.047711 2.900384 5.345993
v -6.095421 2.900384 0.000000
v -3.047711 2.900384 0.000000
v 0.000000 2.900384 0.000000
v 3.047711 2.900384 0.000000
v 6.095421 2.900384 0.000000
v 6.095421 0.000000 0.000000
v 3.047711 0.000000 0.000000
v 0.000000 0.000000 0.000000
v -3.047711 0.000000 0.000000
v -6.095421 0.000000 0.000000
v -6.095421 2.900384 2.672997
v -3.047711 2.900384 2.672997
v 0.000000 2.900384 2.672997
v 3.047711 2.900384 2.672997
v 6.095421 2.900384 2.672997
v 6.095421 0.000000 2.672997
v 3.047711 0.000000 2.672997
v 0.000000 0.000000 2.672997
v -3.047711 0.000000 2.672997
v -6.095421 0.000000 2.672997
v -6.095421 0.000000 -2.672997
v -3.047711 0.000000 -2.672997
v 0.000000 0.000000 -2.672997
v 3.047711 0.000000 -2.672997
v 6.095421 0.000000 -2.672997
v 6.095421 2.900384 -2.672997
v 3.047711 2.900384 -2.672997
v 0.000000 2.900384 -2.672997
v -3.047711 2.900384 -2.672997
v -6.095421 2.900384 -2.672997
v 3.047711 19.000002 -5.345993
v 3.047711 19.000002 -2.672997
v 6.095421 14.000001 -2.672997
v 6.095421 14.000001 -5.345993
v 0.000000 21.000000 -5.345993
v 0.000000 21.000000 -2.672997
v -3.047711 19.000002 -5.345993
v -3.047711 19.000002 -2.672997
v -6.095421 14.000001 -2.672997
v -6.095421 14.000001 -5.345993
v 6.095421 5.960573 -2.672997
v 3.047711 5.960573 -2.672997
v 3.047711 5.960573 0.000000
v 6.095421 5.960573 0.000000
v 3.047711 5.960573 2.672997
v 6.095421 5.960573 2.672997
v 3.047711 5.960573 5.345993
v 6.095421 5.960573 5.345993
v -6.095421 5.960573 0.000000
v -3.047711 5.960573 0.000000
v -3.047711 5.960573 -2.672997
v -6.095421 5.960573 -2.672997
v -6.095421 5.960573 2.672997
v -3.047711 5.960573 2.672997
v -6.095421 5.960573 5.345993
v -3.047711 5.960573 5.345993
v 6.095421 5.960573 -5.345993
v 3.047711 5.960573 -5.345993
v 0.000000 5.960573 -5.345993
v -3.047711 5.960573 -5.345993
v -6.095421 5.960573 -5.345993
v 0.000000 5.960573 -2.672997
v -6.095421 1.450192 5.345993
v -3.047711 1.450192 5.345993
v 0.000000 1.450192 5.345993
v 3.047711 1.450192 5.345993
v 6.095421 1.450192 5.345993
v 6.095421 1.450192 2.672997
v 6.095421 1.450192 0.000000
v 6.095421 1.450192 -2.672997
v 6.095421 1.450192 -5.345993
v 3.047711 1.450192 -5.345993
v 0.000000 1.450192 -5.345993
v -3.047711 1.450192 -5.345993
v -6.095421 1.450192 -5.345993
v -6.095421 1.450192 -2.672997
v -6.095421 1.450192 0.000000
v -6.095421 1.450192 2.672997
v -6.095421 0.725096 5.345993
v -3.047711 0.725096 5.345993
v 0.000000 0.725096 5.345993
v 3.047711 0.725096 5.345993
v 6.095421 0.725096 5.345993
v 6.095421 0.725096 2.672997
v 6.095421 0.725096 0.000000
v 6.095421 0.725096 -2.672997
v 6.095421 0.725096 -5.345993
v 3.047711 0.725096 -5.345993
v 0.000000 0.725096 -5.345993
v -3.047711 0.725096 -5.345993
v -6.095421 0.725096 -5.345993
v -6.095421 0.725096 -2.672997
v -6.095421 0.725096 0.000000
v -6.095421 0.725096 2.672997
vt 0.122002 0.307978
vt 0.122535 0.242744
vt 0.182560 0.242886
vt 0.182026 0.307993
vt 0.062078 0.307196
vt 0.062744 0.242193
vt 0.242937 0.243365
vt 0.242476 0.308694
vt 0.181287 0.377419
vt 0.121171 0.376638
vt 0.002918 0.241539
vt 0.002253 0.306467
vt 0.061214 0.375748
vt 0.241976 0.377981
vt 0.001405 0.374909
vt 0.240948 0.561111
vt 0.188810 0.592655
vt 0.309917 0.675346
vt 0.276220 0.726204
vt 0.379237 0.721165
vt 0.412555 0.772305
vt 0.578918 0.309155
vt 0.578599 0.243877
vt 0.638295 0.243524
vt 0.639080 0.308534
vt 0.518448 0.243734
vt 0.518506 0.309350
vt 0.697873 0.242553
vt 0.699068 0.307521
vt 0.640118 0.377564
vt 0.579556 0.378562
vt 0.518724 0.378766
vt 0.757682 0.241225
vt 0.759075 0.306297
vt 0.700358 0.376372
vt 0.579512 0.561987
vt 0.518552 0.561983
vt 0.760470 0.375117
vt 0.500749 0.707596
vt 0.448843 0.675768
vt 0.910549 0.376227
vt 0.910549 0.316203
vt 0.979267 0.316203
vt 0.979267 0.376227
vt 0.910549 0.256179
vt 0.979267 0.256179
vt 0.910549 0.196155
vt 0.979267 0.196155
vt 0.011746 0.115192
vt 0.011746 0.055168
vt 0.080464 0.055168
vt 0.080464 0.115192
vt 0.011746 0.175216
vt 0.080464 0.175216
vt 0.011746 0.235240
vt 0.080464 0.235240
vt 0.697109 0.684088
vt 0.765547 0.684088
vt 0.765547 0.744112
vt 0.697109 0.744112
vt 0.765547 0.804136
vt 0.697109 0.804136
vt 0.765547 0.864160
vt 0.697109 0.864160
vt 0.243023 0.123751
vt 0.311403 0.123374
vt 0.311617 0.183480
vt 0.243174 0.183508
vt 0.242470 0.063940
vt 0.310956 0.063252
vt 0.380109 0.123026
vt 0.380355 0.183359
vt 0.311601 0.243665
vt 0.310284 0.003007
vt 0.241669 0.003906
vt 0.379700 0.062665
vt 0.449006 0.122665
vt 0.449271 0.183178
vt 0.380422 0.243732
vt 0.379170 0.002249
vt 0.448647 0.062204
vt 0.518371 0.182965
vt 0.518033 0.122304
vt 0.449408 0.243726
vt 0.448234 0.001667
vt 0.517644 0.061795
vt 0.517319 0.001285
vt 0.833986 0.314492
vt 0.765547 0.314492
vt 0.765547 0.254469
vt 0.833986 0.254468
vt 0.765547 0.194445
vt 0.833985 0.194445
vt 0.902424 0.314492
vt 0.902424 0.254468
vt 0.765547 0.134421
vt 0.833985 0.134421
vt 0.902424 0.194444
vt 0.902423 0.134421
vt 0.970862 0.744112
vt 0.902424 0.744112
vt 0.902424 0.684088
vt 0.970862 0.684088
vt 0.970862 0.804136
vt 0.902424 0.804136
vt 0.970862 0.864160
vt 0.902424 0.864160
vt 0.765547 0.932878
vt 0.765547 0.998008
vt 0.697109 0.998008
vt 0.697109 0.932878
vt 0.833986 0.932878
vt 0.833986 0.998008
vt 0.902424 0.932878
vt 0.902424 0.998008
vt 0.970862 0.998008
vt 0.970862 0.932878
vt 0.311389 0.309117
vt 0.380404 0.309329
vt 0.311080 0.378412
vt 0.449448 0.309392
vt 0.380282 0.378665
vt 0.449501 0.378771
vt 0.902424 0.383211
vt 0.833986 0.383211
vt 0.902424 0.676019
vt 0.833986 0.720931
vt 0.765547 0.383211
vt 0.970862 0.383211
vt 0.970862 0.563741
vt 0.765547 0.676019
vt 0.697109 0.383211
vt 0.697109 0.563741
vt 0.570456 0.593834
vt 0.482216 0.726854
vt 0.345576 0.772092
vt 0.180029 0.560695
vt 0.257810 0.706874
vt 0.758378 0.273761
vt 0.970862 0.965443
vt 0.902424 0.965443
vt 0.833986 0.965443
vt 0.765547 0.965443
vt 0.697109 0.965443
vt 0.002586 0.274003
vt 0.062411 0.274695
vt 0.122269 0.275361
vt 0.182293 0.275440
vt 0.242706 0.276030
vt 0.311495 0.276391
vt 0.380413 0.276530
vt 0.449428 0.276559
vt 0.518477 0.276542
vt 0.578758 0.276516
vt 0.638688 0.276029
vt 0.698470 0.275037
vt 0.758030 0.257493
vt 0.970862 0.981726
vt 0.902424 0.981726
vt 0.833986 0.981726
vt 0.765547 0.981726
vt 0.697109 0.981726
vt 0.002752 0.257771
vt 0.062577 0.258444
vt 0.122402 0.259052
vt 0.182427 0.259163
vt 0.242821 0.259697
vt 0.311548 0.260028
vt 0.380418 0.260131
vt 0.449418 0.260142
vt 0.518462 0.260138
vt 0.578679 0.260196
vt 0.638492 0.259776
vt 0.698172 0.258795
vn 0.000000 0.000000 1.000000
vn 0.000000 0.000000 1.000000
vn 0.000000 0.000000 1.000000
vn 0.000000 0.000000 1.000000
vn 0.000000 1.000000 0.000000
vn 0.000000 1.000000 0.000000
vn 0.000000 1.000000 0.000000
vn 0.000000 1.000000 0.000000
vn 0.000000 0.000000 -1.000000
vn 0.000000 0.000000 -1.000000
vn 0.000000 0.000000 -1.000000
vn 0.000000 0.000000 -1.000000
vn 0.000000 -1.000000 0.000000
vn 0.000000 -1.000000 0.000000
vn 0.000000 -1.000000 0.000000
vn 0.000000 -1.000000 0.000000
vn 1.000000 0.000000 0.000000
vn 1.000000 0.000000 0.000000
vn 1.000000 0.000000 0.000000
vn 1.000000 0.000000 0.000000
vn -1.000000 0.000000 0.000000
vn -1.000000 0.000000 0.000000
vn -1.000000 0.000000 0.000000
vn -1.000000 0.000000 0.000000
vn 0.000000 -1.000000 0.000000
vn 0.000000 -1.000000 0.000000
vn 0.000000 -1.000000 0.000000
vn 0.000000 -1.000000 0.000000
vn 0.000000 0.000000 -1.000000
vn 0.000000 0.000000 -1.000000
vn 0.000000 0.000000 -1.000000
vn 0.000000 0.000000 -1.000000
vn 0.000000 1.000000 0.000000
vn 0.000000 1.000000 0.000000
vn 0.000000 1.000000 0.000000
vn 0.000000 1.000000 0.000000
vn 0.000000 0.000000 1.000000
vn 0.000000 0.000000 1.000000
vn 0.000000 0.000000 1.000000
vn 0.000000 0.000000 1.000000
vn 0.000000 -1.000000 0.000000
vn 0.000000 -1.000000 0.000000
vn 0.000000 0.000000 -1.000000
vn 0.000000 0.000000 -1.000000
vn 0.000000 1.000000 0.000000
vn 0.000000 1.000000 0.000000
vn 0.000000 1.000000 0.000000
vn 0.000000 1.000000 0.000000
vn 0.000000 0.000000 1.000000
vn 0.000000 0.000000 1.000000
vn 0.000000 1.000000 0.000000
vn 0.000000 1.000000 0.000000
vn 0.000000 1.000000 0.000000
vn 0.000000 1.000000 0.000000
vn 0.000000 1.000000 0.000000
vn 0.000000 1.000000 0.000000
vn 0.000000 1.000000 0.000000
vn 0.000000 1.000000 0.000000
vn 0.000000 1.000000 0.000000
vn 1.000000 0.000000 0.000000
vn 1.000000 0.000000 0.000000
vn 0.000000 -1.000000 0.000000
vn 0.000000 -1.000000 0.000000
vn 0.000000 -1.000000 0.000000
vn 0.000000 -1.000000 0.000000
vn 0.000000 -1.000000 0.000000
vn -1.000000 0.000000 0.000000
vn -1.000000 0.000000 0.000000
vn 0.000000 1.000000 0.000000
vn 0.000000 1.000000 0.000000
vn 0.000000 1.000000 0.000000
vn 0.000000 1.000000 0.000000
vn 0.000000 1.000000 0.000000
vn 0.000000 1.000000 0.000000
vn 0.000000 1.000000 0.000000
vn 1.000000 0.000000 0.000000
vn 1.000000 0.000000 0.000000
vn 0.000000 -1.000000 0.000000
vn 0.000000 -1.000000 0.000000
vn 0.000000 -1.000000 0.000000
vn 0.000000 -1.000000 0.000000
vn 0.000000 -1.000000 0.000000
vn -1.000000 0.000000 0.000000
vn -1.000000 0.000000 0.000000
vn 0.000000 -1.000000 0.000000
vn 0.000000 -1.000000 0.000000
vn 0.000000 -1.000000 0.000000
vn 0.000000 -1.000000 0.000000
vn 0.000000 -1.000000 0.000000
vn 1.000000 0.000000 0.000000
vn 1.000000 0.000000 0.000000
vn 0.754154 0.656698 0.000000
vn 0.754154 0.656698 0.000000
vn 0.853877 0.520474 0.000000
vn 0.853877 0.520474 0.000000
vn 0.000000 1.000000 0.000000
vn 0.000000 1.000000 0.000000
vn -0.754154 0.656698 0.000000
vn -0.754154 0.656698 0.000000
vn -0.853877 0.520474 0.000000
vn -0.853877 0.520474 0.000000
vn -1.000000 0.000000 0.000000
vn -1.000000 0.000000 0.000000
vn 1.000000 0.000000 0.000000
vn 1.000000 0.000000 0.000000
vn 1.000000 0.000000 0.000000
vn 1.000000 0.000000 0.000000
vn -0.000000 0.000000 -1.000000
vn -0.000000 0.000000 -1.000000
vn -0.000000 0.000000 -1.000000
vn -0.000000 0.000000 -1.000000
vn 0.000000 0.000000 1.000000
vn 0.000000 0.000000 1.000000
vn 0.000000 0.000000 1.000000
vn 0.000000 0.000000 1.000000
vn 0.000000 0.000000 -1.000000
vn 0.000000 0.000000 -1.000000
vn 0.000000 0.000000 1.000000
vn 0.000000 0.000000 1.000000
vn 0.000000 0.000000 -1.000000
vn 0.000000 0.000000 -1.000000
vn 0.000000 0.000000 -1.000000
vn 0.000000 0.000000 -1.000000
vn -1.000000 0.000000 0.000000
vn -1.000000 0.000000 0.000000
vn -1.000000 0.000000 0.000000
vn -1.000000 0.000000 0.000000
vn -1.000000 0.000000 0.000000
vn -1.000000 0.000000 0.000000
vn -1.000000 0.000000 0.000000
vn -1.000000 0.000000 0.000000
vn -1.000000 0.000000 0.000000
vn -1.000000 0.000000 0.000000
vn 1.000000 0.000000 0.000000
vn 1.000000 0.000000 0.000000
vn -1.000000 0.000000 0.000000
vn -1.000000 0.000000 0.000000
vn 0.000000 0.000000 1.000000
vn 0.000000 0.000000 1.000000
vn 1.000000 0.000000 0.000000
vn 1.000000 0.000000 0.000000
vn 1.000000 0.000000 0.000000
vn 1.000000 0.000000 0.000000
vn 1.000000 0.000000 0.000000
vn 1.000000 0.000000 0.000000
vn 1.000000 0.000000 0.000000
vn -1.000000 0.000000 0.000000
vn -1.000000 0.000000 0.000000
vn 0.000000 0.000000 1.000000
vn 0.000000 0.000000 1.000000
vn 1.000000 0.000000 0.000000
vn 1.000000 0.000000 0.000000
vn -1.000000 0.000000 0.000000
vn -1.000000 0.000000 0.000000
vn 1.000000 0.000000 0.000000
vn 0.000000 0.000000 1.000000
vn 0.000000 0.000000 1.000000
vn 0.000000 0.000000 1.000000
vn 0.000000 0.000000 1.000000
vn -0.000000 0.000000 1.000000
vn -0.000000 0.000000 1.000000
vn -0.000000 0.000000 1.000000
vn -0.000000 0.000000 1.000000
vn 0.000000 0.000000 1.000000
vn 0.000000 0.000000 1.000000
vn 0.000000 0.000000 1.000000
vn 0.000000 0.000000 1.000000
vn 0.000000 0.000000 1.000000
vn 0.000000 0.000000 1.000000
vn 0.000000 0.000000 1.000000
vn 0.000000 0.000000 1.000000
vn 1.000000 0.000000 0.000000
vn 1.000000 0.000000 0.000000
vn 1.000000 0.000000 0.000000
vn 1.000000 0.000000 0.000000
vn 1.000000 0.000000 0.000000
vn 0.000000 0.000000 -1.000000
vn 0.000000 0.000000 -1.000000
vn 0.000000 0.000000 -1.000000
vn 0.000000 0.000000 -1.000000
vn 0.000000 0.000000 -1.000000
vn -1.000000 0.000000 0.000000
vn -1.000000 0.000000 0.000000
vn -1.000000 0.000000 0.000000
vn -1.000000 0.000000 0.000000
vn -1.000000 0.000000 0.000000
vn 0.000000 0.000000 1.000000
vn 0.000000 0.000000 1.000000
vn 0.000000 0.000000 1.000000
vn 0.000000 0.000000 1.000000
vn 0.000000 0.000000 1.000000
vn 1.000000 0.000000 0.000000
vn 1.000000 0.000000 0.000000
vn 1.000000 0.000000 0.000000
vn 1.000000 0.000000 0.000000
vn 1.000000 0.000000 0.000000
vn 0.000000 0.000000 -1.000000
vn 0.000000 0.000000 -1.000000
vn 0.000000 0.000000 -1.000000
vn 0.000000 0.000000 -1.000000
vn 0.000000 0.000000 -1.000000
vn -1.000000 0.000000 0.000000
vn -1.000000 0.000000 0.000000
vn -1.000000 0.000000 0.000000
vn -1.000000 0.000000 0.000000
vn -1.000000 0.000000 0.000000
s 1
g pCube1
usemtl lambert2SG
f 20/108/1 86/143/2 87/144/3 4/111/4
s 2
f 61/57/5 62/58/6 63/59/7 64/60/8
s 3
f 91/149/9 92/150/10 19/118/11 6/8/12
s 4
f 26/65/13 27/66/14 44/67/15 45/68/16
s 5
f 25/1/17 89/147/18 90/148/19 46/4/20
s 6
f 50/22/21 96/154/22 97/155/23 21/25/24
s 4
f 28/71/25 29/77/26 42/78/27 43/72/28
s 3
f 93/151/29 94/152/30 15/121/31 11/119/32
s 9
f 48/88/33 49/89/34 22/90/35 23/91/36
s 1
f 16/114/37 84/141/38 85/142/39 12/112/40
s 4
f 41/82/41 42/78/27 29/77/26 30/83/42
s 3
f 5/27/43 15/121/31 94/152/30 95/153/44
s 11
f 69/100/45 70/101/46 71/102/47 72/103/48
s 1
f 83/140/49 84/141/38 16/114/37 3/117/50
s 4
f 27/66/14 28/71/25 43/72/28 44/67/15
s 3
f 92/150/10 93/151/29 11/119/32 19/118/11
s 9
f 47/94/51 48/88/33 23/91/36 24/95/52
s 1
f 12/112/40 85/142/39 86/143/2 20/108/1
s 11
f 73/104/53 74/105/54 70/101/46 69/100/45
s 9
f 23/91/36 22/90/35 32/92/55 33/93/56
f 24/95/52 23/91/36 33/93/56 34/98/57
s 2
f 64/60/8 63/59/7 65/61/58 66/62/59
s 5
f 35/5/60 88/146/61 89/147/18 25/1/17
s 4
f 36/69/62 37/70/63 27/66/14 26/65/13
f 37/70/63 38/76/64 28/71/25 27/66/14
f 38/76/64 39/81/65 29/77/26 28/71/25
f 30/83/42 29/77/26 39/81/65 40/86/66
s 6
f 21/25/24 97/155/23 98/156/67 31/29/68
s 11
f 75/106/69 76/107/70 74/105/54 73/104/53
s 9
f 33/93/56 32/92/55 16/96/71 12/97/72
f 34/98/57 33/93/56 12/97/72 20/99/73
s 2
f 66/62/59 65/61/58 67/63/74 68/64/75
s 5
f 87/145/76 88/146/61 35/5/60 4/12/77
s 4
f 17/74/78 37/70/63 36/69/62 2/75/79
f 9/80/80 38/76/64 37/70/63 17/74/78
f 13/85/81 39/81/65 38/76/64 9/80/80
f 40/86/66 39/81/65 13/85/81 1/87/82
s 6
f 31/29/68 98/156/67 83/139/83 3/34/84
s 4
f 7/26/85 14/84/86 42/78/27 41/82/41
f 43/72/28 42/78/27 14/84/86 10/79/87
f 44/67/15 43/72/28 10/79/87 18/73/88
f 45/68/16 44/67/15 18/73/88 8/7/89
s 5
f 46/4/20 90/148/19 91/149/90 6/8/91
s 12
f 51/18/92 52/138/93 53/17/94 54/16/95
f 55/20/96 56/136/97 52/19/93 51/18/92
f 57/40/98 58/135/99 56/21/97 55/20/96
f 59/134/100 58/39/99 57/40/98 60/37/101
s 6
f 95/153/102 96/154/22 50/22/21 5/27/103
s 5
f 61/9/104 77/14/105 54/16/106 53/137/107
s 3
f 77/14/108 78/120/109 51/18/110 54/16/111
s 13
f 48/88/112 47/94/113 62/124/114 82/125/115
s 3
f 78/120/109 79/122/116 55/20/117 51/18/110
s 13
f 49/89/118 48/88/112 82/125/115 71/128/119
s 3
f 79/122/116 80/123/120 57/40/121 55/20/117
f 80/123/120 81/32/122 60/37/123 57/40/121
s 6
f 81/32/124 72/31/125 59/36/126 60/37/127
s 14
f 47/41/128 24/42/129 63/43/130 62/44/131
f 24/42/129 34/45/132 65/46/133 63/43/130
s 5
f 35/5/60 25/1/17 64/10/134 66/13/135
s 14
f 34/45/132 20/47/136 67/48/137 65/46/133
s 1
f 20/108/1 4/111/4 68/64/138 67/63/139
s 5
f 4/12/77 35/5/60 66/13/135 68/15/140
s 15
f 22/49/141 49/50/142 71/51/143 70/52/144
f 32/53/145 22/49/141 70/52/144 74/54/146
s 6
f 21/25/24 31/29/68 73/35/147 69/30/148
s 1
f 3/117/50 16/114/37 76/107/149 75/106/150
s 15
f 16/55/151 32/53/145 74/54/146 76/56/152
s 6
f 31/29/68 3/34/84 75/38/153 73/35/147
f 69/30/148 72/31/154 50/22/21 21/25/24
s 5
f 61/9/155 64/10/134 25/1/17 46/4/20
s off
f 62/124/156 61/129/157 53/130/158 52/126/159
f 72/132/160 71/128/161 58/131/162 59/133/163
s 5
f 46/4/20 6/8/91 77/14/105 61/9/104
s 3
f 6/8/12 19/118/11 78/120/109 77/14/108
f 19/118/11 11/119/32 79/122/116 78/120/109
f 11/119/32 15/121/31 80/123/120 79/122/116
f 15/121/31 5/27/43 81/32/122 80/123/120
s 6
f 5/27/103 50/22/21 72/31/125 81/32/124
s 13
f 82/125/115 62/124/114 52/126/164 56/127/165
f 71/128/119 82/125/115 56/127/165 58/131/166
s 1
f 99/158/167 100/159/168 84/141/38 83/140/49
f 85/142/39 84/141/38 100/159/168 101/160/169
f 86/143/2 85/142/39 101/160/169 102/161/170
f 87/144/3 86/143/2 102/161/170 103/162/171
s 5
f 103/163/172 104/164/173 88/146/61 87/145/76
f 89/147/18 88/146/61 104/164/173 105/165/174
f 90/148/19 89/147/18 105/165/174 106/166/175
f 91/149/90 90/148/19 106/166/175 107/167/176
s 3
f 107/167/177 108/168/178 92/150/10 91/149/9
f 108/168/178 109/169/179 93/151/29 92/150/10
f 109/169/179 110/170/180 94/152/30 93/151/29
f 95/153/44 94/152/30 110/170/180 111/171/181
s 6
f 111/171/182 112/172/183 96/154/22 95/153/102
f 97/155/23 96/154/22 112/172/183 113/173/184
f 98/156/67 97/155/23 113/173/184 114/174/185
f 83/139/83 98/156/67 114/174/185 99/157/186
s 1
f 1/116/187 13/115/188 100/159/168 99/158/167
f 101/160/169 100/159/168 13/115/188 9/113/189
f 102/161/170 101/160/169 9/113/189 17/109/190
f 103/162/171 102/161/170 17/109/190 2/110/191
s 5
f 2/11/192 36/6/193 104/164/173 103/163/172
f 105/165/174 104/164/173 36/6/193 26/2/194
f 106/166/175 105/165/174 26/2/194 45/3/195
f 107/167/176 106/166/175 45/3/195 8/7/196
s 3
f 18/73/197 108/168/178 107/167/177 8/7/198
f 10/79/199 109/169/179 108/168/178 18/73/197
f 14/84/200 110/170/180 109/169/179 10/79/199
f 111/171/181 110/170/180 14/84/200 7/26/201
s 6
f 7/26/202 41/23/203 112/172/183 111/171/182
f 113/173/184 112/172/183 41/23/203 30/24/204
f 114/174/185 113/173/184 30/24/204 40/28/205
f 99/157/186 114/174/185 40/28/205 1/33/206
