# This file uses centimeters as units for non-parametric coordinates.

mtllib TreeUV.mtl
g default
v 4.671112 26.263292 -4.671112
v 0.000000 26.263292 -6.605949
v -4.671112 26.263292 -4.671112
v -6.605949 26.263292 0.000000
v -4.671112 26.263292 4.671112
v 0.000000 26.263292 6.605950
v 4.671112 26.263292 4.671112
v 6.605950 26.263292 0.000000
v 0.000000 39.475193 0.000000
vt 0.696488 0.178196
vt 0.684588 0.238588
vt 0.521620 0.238315
vt 0.696286 0.299021
vt 0.817111 0.299223
vt 0.829011 0.238830
vt 0.991978 0.239103
vt 0.817313 0.178398
vt 0.756679 0.310921
vt 0.756921 0.166498
vt 0.757194 0.003530
vt 0.756406 0.473889
vn 0.000000 -1.000000 0.000000
vn 0.000000 -1.000000 0.000000
vn 0.000000 -1.000000 0.000000
vn 0.000000 -1.000000 0.000000
vn 0.000000 -1.000000 0.000000
vn 0.000000 -1.000000 0.000000
vn 0.000000 -1.000000 0.000000
vn 0.000000 -1.000000 0.000000
vn 0.347408 0.419358 -0.838717
vn 0.347408 0.419358 -0.838717
vn 0.347408 0.419358 -0.838717
vn -0.347408 0.419358 -0.838717
vn -0.347408 0.419358 -0.838717
vn -0.347408 0.419358 -0.838717
vn -0.838717 0.419358 -0.347408
vn -0.838717 0.419358 -0.347408
vn -0.838717 0.419358 -0.347408
vn -0.838717 0.419358 0.347408
vn -0.838717 0.419358 0.347408
vn -0.838717 0.419358 0.347408
vn -0.347408 0.419358 0.838717
vn -0.347408 0.419358 0.838717
vn -0.347408 0.419358 0.838717
vn 0.347408 0.419358 0.838717
vn 0.347408 0.419358 0.838717
vn 0.347408 0.419358 0.838717
vn 0.838717 0.419359 0.347408
vn 0.838717 0.419359 0.347408
vn 0.838717 0.419359 0.347408
vn 0.838717 0.419358 -0.347408
vn 0.838717 0.419358 -0.347408
vn 0.838717 0.419358 -0.347408
s off
g pCone3
usemtl texturedFacets
f 1/8/1 8/6/2 7/5/3 6/9/4 5/4/5 4/2/6 3/1/7 2/10/8
f 1/8/9 2/10/10 9/11/11
f 2/10/12 3/1/13 9/11/14
f 3/1/15 4/2/16 9/3/17
f 4/2/18 5/4/19 9/3/20
f 5/4/21 6/9/22 9/12/23
f 6/9/24 7/5/25 9/12/26
f 7/5/27 8/6/28 9/7/29
f 8/6/30 1/8/31 9/7/32
g default
v 1.640653 -0.049430 -1.640653
v -0.000000 -0.049430 -2.320234
v -1.640653 -0.049430 -1.640653
v -2.320234 -0.049430 -0.000000
v -1.640653 -0.049430 1.640653
v -0.000000 -0.049430 2.320234
v 1.640653 -0.049430 1.640653
v 2.320234 -0.049430 -0.000000
v 1.303231 9.173566 -1.303231
v 0.000000 9.173566 -1.843046
v -1.303231 9.173566 -1.303231
v -1.843046 9.173566 0.000000
v -1.303231 9.173566 1.303231
v 0.000000 9.173566 1.843046
v 1.303231 9.173566 1.303231
v 1.843046 9.173566 0.000000
v -0.000000 -0.049430 -0.000000
v 0.000000 9.173564 -0.000000
vt 0.120198 0.537179
vt 0.068833 0.544746
vt 0.001980 0.183197
vt 0.066644 0.173670
vt 0.171563 0.529611
vt 0.131307 0.164143
vt 0.327042 0.522024
vt 0.275123 0.522024
vt 0.261681 0.154591
vt 0.327042 0.154591
vt 0.392404 0.154591
vt 0.378962 0.522024
vt 0.430742 0.525817
vt 0.457591 0.159367
vt 0.482522 0.529611
vt 0.522777 0.164143
vt 0.223343 0.525817
vt 0.196494 0.159367
vt 0.414874 0.109895
vt 0.495950 0.083068
vt 0.419651 0.044708
vt 0.469123 0.001992
vt 0.572249 0.121427
vt 0.534310 0.006769
vt 0.577026 0.056241
vt 0.045431 0.637782
vt 0.037864 0.586417
vt 0.103650 0.602965
vt 0.087102 0.668751
vt 0.138467 0.661184
vt 0.161869 0.568148
vt 0.169436 0.619513
vn 0.382247 0.047746 -0.922826
vn 0.382247 0.047746 -0.922826
vn 0.382247 0.047746 -0.922826
vn 0.382247 0.047746 -0.922826
vn -0.382247 0.047746 -0.922826
vn -0.382247 0.047746 -0.922826
vn -0.382247 0.047746 -0.922826
vn -0.382247 0.047746 -0.922826
vn -0.922826 0.047746 -0.382247
vn -0.922826 0.047746 -0.382247
vn -0.922826 0.047746 -0.382247
vn -0.922826 0.047746 -0.382247
vn -0.922826 0.047746 0.382247
vn -0.922826 0.047746 0.382247
vn -0.922826 0.047746 0.382247
vn -0.922826 0.047746 0.382247
vn -0.382247 0.047746 0.922826
vn -0.382247 0.047746 0.922826
vn -0.382247 0.047746 0.922826
vn -0.382247 0.047746 0.922826
vn 0.382247 0.047746 0.922826
vn 0.382247 0.047746 0.922826
vn 0.382247 0.047746 0.922826
vn 0.382247 0.047746 0.922826
vn 0.922826 0.047746 0.382247
vn 0.922826 0.047746 0.382247
vn 0.922826 0.047746 0.382247
vn 0.922826 0.047746 0.382247
vn 0.922826 0.047746 -0.382247
vn 0.922826 0.047746 -0.382247
vn 0.922826 0.047746 -0.382247
vn 0.922826 0.047746 -0.382247
vn 0.000000 -1.000000 0.000000
vn 0.000000 -1.000000 0.000000
vn 0.000000 -1.000000 0.000000
vn 0.000000 -1.000000 0.000000
vn 0.000000 -1.000000 0.000000
vn 0.000000 -1.000000 0.000000
vn 0.000000 -1.000000 0.000000
vn 0.000000 -1.000000 0.000000
vn 0.000000 -1.000000 0.000000
vn -0.000000 1.000000 0.000000
vn -0.000000 1.000000 0.000001
vn 0.000000 1.000000 0.000001
vn 0.000001 1.000000 0.000000
vn 0.000001 1.000000 -0.000001
vn -0.000000 1.000000 -0.000001
vn -0.000001 1.000000 -0.000001
vn -0.000001 1.000000 0.000000
vn -0.000001 1.000000 0.000001
s off
g pCylinder1
usemtl texturedFacets
f 19/25/33 18/24/34 10/23/35 11/26/36
f 20/27/37 19/25/38 11/26/39 12/28/40
f 21/13/41 20/14/42 12/15/43 13/16/44
f 22/17/45 21/13/46 13/16/47 14/18/48
f 23/29/49 22/17/50 14/18/51 15/30/52
f 24/20/53 23/29/54 15/30/55 16/21/56
f 25/19/57 24/20/58 16/21/59 17/22/60
f 10/23/61 18/24/62 25/19/63 17/22/64
s 1
f 12/28/65 11/26/66 26/32/67 13/35/68
f 14/37/69 13/35/68 26/32/67 15/36/70
f 16/34/71 15/36/70 26/32/67 17/33/72
f 10/31/73 17/33/72 26/32/67 11/26/66
s 2
f 27/40/74 19/39/75 20/14/76 21/13/77
f 27/40/74 21/13/77 22/43/78 23/44/79
f 27/40/74 23/44/79 24/42/80 25/41/81
f 27/40/74 25/41/81 18/38/82 19/39/75
g default
v 6.722799 17.560429 -6.722799
v 0.000000 17.560429 -9.507474
v -6.722799 17.560429 -6.722799
v -9.507474 17.560429 0.000000
v -6.722799 17.560429 6.722799
v 0.000000 17.560429 9.507474
v 6.722800 17.560429 6.722800
v 9.507475 17.560429 0.000000
v 0.000000 36.575379 0.000000
vt 0.628536 0.486961
vt 0.616635 0.547353
vt 0.453667 0.547080
vt 0.628333 0.607785
vt 0.749158 0.607987
vt 0.761058 0.547595
vt 0.924026 0.547868
vt 0.749360 0.487163
vt 0.688726 0.619686
vt 0.688968 0.475262
vt 0.689241 0.312294
vt 0.688453 0.782653
vn 0.000000 -1.000000 0.000000
vn 0.000000 -1.000000 0.000000
vn 0.000000 -1.000000 0.000000
vn 0.000000 -1.000000 0.000000
vn 0.000000 -1.000000 0.000000
vn 0.000000 -1.000000 0.000000
vn 0.000000 -1.000000 0.000000
vn 0.000000 -1.000000 0.000000
vn 0.347408 0.419358 -0.838717
vn 0.347408 0.419358 -0.838717
vn 0.347408 0.419358 -0.838717
vn -0.347408 0.419358 -0.838717
vn -0.347408 0.419358 -0.838717
vn -0.347408 0.419358 -0.838717
vn -0.838717 0.419358 -0.347408
vn -0.838717 0.419358 -0.347408
vn -0.838717 0.419358 -0.347408
vn -0.838717 0.419358 0.347408
vn -0.838717 0.419358 0.347408
vn -0.838717 0.419358 0.347408
vn -0.347408 0.419358 0.838717
vn -0.347408 0.419358 0.838717
vn -0.347408 0.419358 0.838717
vn 0.347408 0.419358 0.838717
vn 0.347408 0.419358 0.838717
vn 0.347408 0.419358 0.838717
vn 0.838717 0.419359 0.347408
vn 0.838717 0.419359 0.347408
vn 0.838717 0.419359 0.347408
vn 0.838717 0.419358 -0.347408
vn 0.838717 0.419358 -0.347408
vn 0.838717 0.419358 -0.347408
s off
g pCone2
usemtl texturedFacets
f 28/52/83 35/50/84 34/49/85 33/53/86 32/48/87 31/46/88 30/45/89 29/54/90
f 28/52/91 29/54/92 36/55/93
f 29/54/94 30/45/95 36/55/96
f 30/45/97 31/46/98 36/47/99
f 31/46/100 32/48/101 36/47/102
f 32/48/103 33/53/104 36/56/105
f 33/53/106 34/49/107 36/56/108
f 34/49/109 35/50/110 36/51/111
f 35/50/112 28/52/113 36/51/114
g default
v 8.298894 8.438825 -8.298894
v 0.000000 8.438825 -11.736408
v -8.298894 8.438825 -8.298894
v -11.736408 8.438825 0.000000
v -8.298894 8.438825 8.298894
v 0.000000 8.438825 11.736409
v 8.298895 8.438825 8.298895
v 11.736410 8.438825 0.000000
v 0.000000 31.911644 0.000000
vt 0.322748 0.702315
vt 0.310847 0.762708
vt 0.147879 0.762436
vt 0.322545 0.823140
vt 0.443369 0.823342
vt 0.455270 0.762950
vt 0.618238 0.763223
vt 0.443572 0.702518
vt 0.382938 0.835040
vt 0.383180 0.690617
vt 0.383453 0.527649
vt 0.382665 0.998008
vn 0.000000 -1.000000 0.000000
vn 0.000000 -1.000000 0.000000
vn 0.000000 -1.000000 0.000000
vn 0.000000 -1.000000 0.000000
vn 0.000000 -1.000000 0.000000
vn 0.000000 -1.000000 0.000000
vn 0.000000 -1.000000 0.000000
vn 0.000000 -1.000000 0.000000
vn 0.347408 0.419358 -0.838717
vn 0.347408 0.419358 -0.838717
vn 0.347408 0.419358 -0.838717
vn -0.347408 0.419358 -0.838717
vn -0.347408 0.419358 -0.838717
vn -0.347408 0.419358 -0.838717
vn -0.838717 0.419358 -0.347408
vn -0.838717 0.419358 -0.347408
vn -0.838717 0.419358 -0.347408
vn -0.838717 0.419358 0.347408
vn -0.838717 0.419358 0.347408
vn -0.838717 0.419358 0.347408
vn -0.347408 0.419358 0.838717
vn -0.347408 0.419358 0.838717
vn -0.347408 0.419358 0.838717
vn 0.347408 0.419358 0.838717
vn 0.347408 0.419358 0.838717
vn 0.347408 0.419358 0.838717
vn 0.838717 0.419359 0.347408
vn 0.838717 0.419359 0.347408
vn 0.838717 0.419359 0.347408
vn 0.838717 0.419358 -0.347408
vn 0.838717 0.419358 -0.347408
vn 0.838717 0.419358 -0.347408
s off
g pCone1
usemtl texturedFacets
f 37/64/115 44/62/116 43/61/117 42/65/118 41/60/119 40/58/120 39/57/121 38/66/122
f 37/64/123 38/66/124 45/67/125
f 38/66/126 39/57/127 45/67/128
f 39/57/129 40/58/130 45/59/131
f 40/58/132 41/60/133 45/59/134
f 41/60/135 42/65/136 45/68/137
f 42/65/138 43/61/139 45/68/140
f 43/61/141 44/62/142 45/63/143
f 44/62/144 37/64/145 45/63/146
